<svg width="18" height="18" viewBox="0 0 18 18" fill="none" xmlns="http://www.w3.org/2000/svg">
<g clip-path="url(#clip0_1_100)">
<path d="M8.96519 0C4.01449 0 0 4.12602 0 9.21587C0 13.2877 2.5688 16.7422 6.13097 17.9608C6.579 18.0461 6.74353 17.7609 6.74353 17.5175C6.74353 17.2978 6.73516 16.5717 6.73137 15.8017C4.23717 16.3591 3.71088 14.7143 3.71088 14.7143C3.30307 13.6491 2.71547 13.3659 2.71547 13.3659C1.90209 12.7939 2.77678 12.8056 2.77678 12.8056C3.67706 12.8706 4.15111 13.7553 4.15111 13.7553C4.9507 15.1642 6.24839 14.7569 6.75998 14.5215C6.84042 13.9257 7.0728 13.5193 7.32916 13.2891C5.33791 13.056 3.24457 12.2658 3.24457 8.73456C3.24457 7.72845 3.5948 6.90628 4.16834 6.26091C4.07524 6.02875 3.7684 5.09144 4.25517 3.82201C4.25517 3.82201 5.00801 3.57431 6.72124 4.76669C7.43632 4.56243 8.20329 4.46009 8.96519 4.45662C9.7271 4.46009 10.4946 4.56243 11.2111 4.76669C12.9223 3.57431 13.6741 3.82201 13.6741 3.82201C14.1621 5.09144 13.8551 6.02875 13.762 6.26091C14.3368 6.90628 14.6846 7.72838 14.6846 8.73456C14.6846 12.2742 12.5873 13.0536 10.591 13.2817C10.9126 13.5678 11.1991 14.1286 11.1991 14.9884C11.1991 16.2215 11.1887 17.2139 11.1887 17.5175C11.1887 17.7627 11.3501 18.0501 11.8046 17.9596C15.3648 16.7396 17.9303 13.2864 17.9303 9.21587C17.9303 4.12602 13.9164 0 8.96519 0Z" fill="#F2F2F2"/>
<path d="M3.35777 13.1282C3.33808 13.174 3.26791 13.1877 3.20413 13.1563C3.13909 13.1263 3.10253 13.0638 3.12363 13.0179C3.14296 12.9707 3.21313 12.9576 3.27803 12.9892C3.34321 13.0192 3.38034 13.0823 3.35777 13.1282ZM3.79877 13.5327C3.75602 13.5735 3.67241 13.5545 3.61567 13.4901C3.55703 13.4259 3.54606 13.34 3.58945 13.2986C3.63353 13.2579 3.7146 13.2769 3.77338 13.3412C3.83202 13.4062 3.84341 13.4916 3.7987 13.5328M4.10132 14.0502C4.04634 14.0895 3.95648 14.0527 3.901 13.9707C3.84609 13.8888 3.84609 13.7905 3.9022 13.7511C3.95788 13.7117 4.04634 13.7471 4.10259 13.8285C4.15743 13.9118 4.15743 14.0101 4.10125 14.0503M4.61292 14.6496C4.56377 14.7053 4.45914 14.6904 4.3825 14.6143C4.30417 14.54 4.28231 14.4346 4.33159 14.3789C4.38131 14.3231 4.48656 14.3387 4.56377 14.4141C4.6416 14.4883 4.6653 14.5945 4.61292 14.6496ZM5.27413 14.852C5.25255 14.9241 5.15172 14.9569 5.05019 14.9263C4.9488 14.8947 4.88242 14.8101 4.90288 14.7372C4.92398 14.6646 5.02523 14.6304 5.12753 14.6632C5.22878 14.6946 5.29523 14.7786 5.27413 14.852ZM6.02676 14.9378C6.02929 15.0138 5.94316 15.0769 5.83656 15.0782C5.72934 15.0806 5.64264 15.0191 5.64152 14.9444C5.64152 14.8676 5.72568 14.8052 5.83284 14.8034C5.93943 14.8012 6.02676 14.8623 6.02676 14.9378ZM6.76602 14.9087C6.77882 14.9828 6.70471 15.059 6.59889 15.0792C6.49483 15.0988 6.3985 15.053 6.38521 14.9795C6.37227 14.9035 6.44779 14.8273 6.55164 14.8076C6.65767 14.7887 6.75252 14.8333 6.76602 14.9087Z" fill="#F2F2F2"/>
</g>
<defs>
<clipPath id="clip0_1_100">
<rect width="18" height="18" fill="white"/>
</clipPath>
</defs>
</svg>
