<svg width="18" height="18" viewBox="0 0 18 18" fill="none" xmlns="http://www.w3.org/2000/svg">
<g clip-path="url(#clip0_1_106)">
<path d="M8.99998 0.000165939C4.0294 0.000165939 0 4.02956 0 9.00015C0 13.9707 4.0294 18.0001 8.99998 18.0001C13.9706 18.0001 18 13.9707 18 9.00015C18 4.02956 13.9705 0.000165939 8.99998 0.000165939ZM6.59877 13.3512H4.62273V6.96721H6.59877V13.3512ZM5.60133 6.13118C4.95598 6.13118 4.43281 5.60374 4.43281 4.95322C4.43281 4.30263 4.95605 3.77522 5.60133 3.77522C6.24661 3.77522 6.76979 4.30263 6.76979 4.95322C6.76982 5.60378 6.24665 6.13118 5.60133 6.13118ZM14.004 13.3512H12.0375V10.0001C12.0375 9.08105 11.6884 8.568 10.9616 8.568C10.1707 8.568 9.75747 9.10234 9.75747 10.0001V13.3512H7.86222V6.96721H9.75747V7.82703C9.75747 7.82703 10.3276 6.77248 11.6812 6.77248C13.0349 6.77248 14.004 7.59905 14.004 9.30896L14.004 13.3512Z" fill="#F2F2F2"/>
</g>
<defs>
<clipPath id="clip0_1_106">
<rect width="18" height="18" fill="white"/>
</clipPath>
</defs>
</svg>
