<svg width="18" height="18" viewBox="0 0 18 18" fill="none" xmlns="http://www.w3.org/2000/svg">
<path d="M6.3 11.025C5.985 11.025 5.71875 10.9162 5.50125 10.6987C5.28375 10.4812 5.175 10.215 5.175 9.9C5.175 9.585 5.28375 9.31875 5.50125 9.10125C5.71875 8.88375 5.985 8.775 6.3 8.775C6.615 8.775 6.88125 8.88375 7.09875 9.10125C7.31625 9.31875 7.425 9.585 7.425 9.9C7.425 10.215 7.31625 10.4812 7.09875 10.6987C6.88125 10.9162 6.615 11.025 6.3 11.025ZM11.7 11.025C11.385 11.025 11.1187 10.9162 10.9012 10.6987C10.6838 10.4812 10.575 10.215 10.575 9.9C10.575 9.585 10.6838 9.31875 10.9012 9.10125C11.1187 8.88375 11.385 8.775 11.7 8.775C12.015 8.775 12.2812 8.88375 12.4987 9.10125C12.7162 9.31875 12.825 9.585 12.825 9.9C12.825 10.215 12.7162 10.4812 12.4987 10.6987C12.2812 10.9162 12.015 11.025 11.7 11.025ZM9 16.2C11.01 16.2 12.7125 15.5025 14.1075 14.1075C15.5025 12.7125 16.2 11.01 16.2 9C16.2 8.64 16.1775 8.29125 16.1325 7.95375C16.0875 7.61625 16.005 7.29 15.885 6.975C15.57 7.05 15.255 7.10625 14.94 7.14375C14.625 7.18125 14.295 7.2 13.95 7.2C12.585 7.2 11.295 6.9075 10.08 6.3225C8.865 5.7375 7.83 4.92 6.975 3.87C6.495 5.04 5.80875 6.05625 4.91625 6.91875C4.02375 7.78125 2.985 8.43 1.8 8.865V9C1.8 11.01 2.4975 12.7125 3.8925 14.1075C5.2875 15.5025 6.99 16.2 9 16.2ZM9 18C7.755 18 6.585 17.7638 5.49 17.2912C4.395 16.8187 3.4425 16.1775 2.6325 15.3675C1.8225 14.5575 1.18125 13.605 0.70875 12.51C0.23625 11.415 0 10.245 0 9C0 7.755 0.23625 6.585 0.70875 5.49C1.18125 4.395 1.8225 3.4425 2.6325 2.6325C3.4425 1.8225 4.395 1.18125 5.49 0.70875C6.585 0.23625 7.755 0 9 0C10.245 0 11.415 0.23625 12.51 0.70875C13.605 1.18125 14.5575 1.8225 15.3675 2.6325C16.1775 3.4425 16.8187 4.395 17.2912 5.49C17.7638 6.585 18 7.755 18 9C18 10.245 17.7638 11.415 17.2912 12.51C16.8187 13.605 16.1775 14.5575 15.3675 15.3675C14.5575 16.1775 13.605 16.8187 12.51 17.2912C11.415 17.7638 10.245 18 9 18Z" fill="#F2F2F2"/>
</svg>
